<svg xmlns="http://www.w3.org/2000/svg" xmlns:xlink="http://www.w3.org/1999/xlink" contentStyleType="text/css" data-diagram-type="SEQUENCE" height="1304px" preserveAspectRatio="none" style="width:1700px;height:1304px;background:#FFFFFF;" version="1.1" viewBox="0 0 1700 1304" width="1700px" zoomAndPan="magnify"><title>Discover Sources (Sequential Scan - v1.0.0)</title><defs/><g><text fill="#000000" font-family="sans-serif" font-size="14" font-weight="bold" lengthAdjust="spacing" textLength="312.1768" x="695.6782" y="28.5352">Discover Sources (Sequential Scan - v1.0.0)</text><g><title>TZif.API</title><rect fill="#FFFFFF" height="869.248" style="stroke:#181818;stroke-width:1;" width="10" x="502.8018" y="285.1504"/></g><g><title>Source_Scanner</title><rect fill="#FFFFFF" height="792.3164" style="stroke:#181818;stroke-width:1;" width="10" x="892.7466" y="332.7715"/></g><g><title>Source_Scanner</title><rect fill="#FFFFFF" height="159.4844" style="stroke:#181818;stroke-width:1;" width="10" x="897.7466" y="857.6719"/></g><g><title>Path_Tracker</title><rect fill="#FFFFFF" height="29.3105" style="stroke:#181818;stroke-width:1;" width="10" x="1105.0288" y="362.082"/></g><g><title>Path_Tracker</title><rect fill="#FFFFFF" height="29.3105" style="stroke:#181818;stroke-width:1;" width="10" x="1105.0288" y="575.5664"/></g><g><title>Path_Tracker</title><rect fill="#FFFFFF" height="29.3105" style="stroke:#181818;stroke-width:1;" width="10" x="1105.0288" y="634.1875"/></g><g><title>Validator</title><rect fill="#FFFFFF" height="395.9688" style="stroke:#181818;stroke-width:1;" width="10" x="1203.3662" y="692.8086"/></g><g><title>File_System</title><rect fill="#FFFFFF" height="39.9658" style="stroke:#181818;stroke-width:1;" width="10" x="1487.25" y="506.29"/></g><g><title>File_System</title><rect fill="#FFFFFF" height="29.3105" style="stroke:#181818;stroke-width:1;" width="10" x="1487.25" y="722.1191"/></g><g><title>File_System</title><rect fill="#FFFFFF" height="29.3105" style="stroke:#181818;stroke-width:1;" width="10" x="1487.25" y="780.7402"/></g><rect fill="none" height="690.3848" style="stroke:#000000;stroke-width:1.5;" width="866.7241" x="827.8091" y="406.3926"/><g><title>Developer</title><rect fill="#000000" fill-opacity="0.00000" height="1104.043" width="8" x="121.1592" y="118.9766"/><line style="stroke:#181818;stroke-width:0.5;stroke-dasharray:5,5;" x1="125" x2="125" y1="118.9766" y2="1223.0195"/></g><g><title>TZif.API</title><rect fill="#000000" fill-opacity="0.00000" height="1104.043" width="8" x="503.8018" y="118.9766"/><line style="stroke:#181818;stroke-width:0.5;stroke-dasharray:5,5;" x1="507.6167" x2="507.6167" y1="118.9766" y2="1223.0195"/></g><g><title>Source_Scanner</title><rect fill="#000000" fill-opacity="0.00000" height="1104.043" width="8" x="893.7466" y="118.9766"/><line style="stroke:#181818;stroke-width:0.5;stroke-dasharray:5,5;" x1="896.8091" x2="896.8091" y1="118.9766" y2="1223.0195"/></g><g><title>Path_Tracker</title><rect fill="#000000" fill-opacity="0.00000" height="1104.043" width="8" x="1106.0288" y="118.9766"/><line style="stroke:#181818;stroke-width:0.5;stroke-dasharray:5,5;" x1="1109.2344" x2="1109.2344" y1="118.9766" y2="1223.0195"/></g><g><title>Validator</title><rect fill="#000000" fill-opacity="0.00000" height="1104.043" width="8" x="1204.3662" y="118.9766"/><line style="stroke:#181818;stroke-width:0.5;stroke-dasharray:5,5;" x1="1207.8232" x2="1207.8232" y1="118.9766" y2="1223.0195"/></g><g><title>File_System</title><rect fill="#000000" fill-opacity="0.00000" height="1104.043" width="8" x="1488.25" y="118.9766"/><line style="stroke:#181818;stroke-width:0.5;stroke-dasharray:5,5;" x1="1492.0015" x2="1492.0015" y1="118.9766" y2="1223.0195"/></g><g class="participant participant-head" data-participant="Developer"><text fill="#000000" font-family="sans-serif" font-size="14" lengthAdjust="spacing" textLength="68.3184" x="88" y="116.0234">Developer</text><ellipse cx="125.1592" cy="50.9883" fill="#E2E2F0" rx="8" ry="8" style="stroke:#181818;stroke-width:0.5;"/><path d="M125.1592,58.9883 L125.1592,85.9883 M112.1592,66.9883 L138.1592,66.9883 M125.1592,85.9883 L112.1592,100.9883 M125.1592,85.9883 L138.1592,100.9883" fill="none" style="stroke:#181818;stroke-width:0.5;"/></g><g class="participant participant-tail" data-participant="Developer"><text fill="#000000" font-family="sans-serif" font-size="14" lengthAdjust="spacing" textLength="68.3184" x="88" y="1235.5547">Developer</text><ellipse cx="125.1592" cy="1247.0078" fill="#E2E2F0" rx="8" ry="8" style="stroke:#181818;stroke-width:0.5;"/><path d="M125.1592,1255.0078 L125.1592,1282.0078 M112.1592,1263.0078 L138.1592,1263.0078 M125.1592,1282.0078 L112.1592,1297.0078 M125.1592,1282.0078 L138.1592,1297.0078" fill="none" style="stroke:#181818;stroke-width:0.5;"/></g><g class="participant participant-head" data-participant="API"><rect fill="#E2E2F0" height="30.4883" rx="2.5" ry="2.5" style="stroke:#181818;stroke-width:0.5;" width="66.3701" x="474.6167" y="87.4883"/><text fill="#000000" font-family="sans-serif" font-size="14" lengthAdjust="spacing" textLength="52.3701" x="481.6167" y="108.0234">TZif.API</text></g><g class="participant participant-tail" data-participant="API"><rect fill="#E2E2F0" height="30.4883" rx="2.5" ry="2.5" style="stroke:#181818;stroke-width:0.5;" width="66.3701" x="474.6167" y="1222.0195"/><text fill="#000000" font-family="sans-serif" font-size="14" lengthAdjust="spacing" textLength="52.3701" x="481.6167" y="1242.5547">TZif.API</text></g><g class="participant participant-head" data-participant="Scanner"><rect fill="#E2E2F0" height="30.4883" rx="2.5" ry="2.5" style="stroke:#181818;stroke-width:0.5;" width="119.875" x="837.8091" y="87.4883"/><text fill="#000000" font-family="sans-serif" font-size="14" lengthAdjust="spacing" textLength="105.875" x="844.8091" y="108.0234">Source_Scanner</text></g><g class="participant participant-tail" data-participant="Scanner"><rect fill="#E2E2F0" height="30.4883" rx="2.5" ry="2.5" style="stroke:#181818;stroke-width:0.5;" width="119.875" x="837.8091" y="1222.0195"/><text fill="#000000" font-family="sans-serif" font-size="14" lengthAdjust="spacing" textLength="105.875" x="844.8091" y="1242.5547">Source_Scanner</text></g><g class="participant participant-head" data-participant="Tracker"><rect fill="#E2E2F0" height="30.4883" rx="2.5" ry="2.5" style="stroke:#181818;stroke-width:0.5;" width="101.5889" x="1059.2344" y="87.4883"/><text fill="#000000" font-family="sans-serif" font-size="14" lengthAdjust="spacing" textLength="87.5889" x="1066.2344" y="108.0234">Path_Tracker</text></g><g class="participant participant-tail" data-participant="Tracker"><rect fill="#E2E2F0" height="30.4883" rx="2.5" ry="2.5" style="stroke:#181818;stroke-width:0.5;" width="101.5889" x="1059.2344" y="1222.0195"/><text fill="#000000" font-family="sans-serif" font-size="14" lengthAdjust="spacing" textLength="87.5889" x="1066.2344" y="1242.5547">Path_Tracker</text></g><g class="participant participant-head" data-participant="Val"><rect fill="#E2E2F0" height="30.4883" rx="2.5" ry="2.5" style="stroke:#181818;stroke-width:0.5;" width="75.0859" x="1170.8232" y="87.4883"/><text fill="#000000" font-family="sans-serif" font-size="14" lengthAdjust="spacing" textLength="61.0859" x="1177.8232" y="108.0234">Validator</text></g><g class="participant participant-tail" data-participant="Val"><rect fill="#E2E2F0" height="30.4883" rx="2.5" ry="2.5" style="stroke:#181818;stroke-width:0.5;" width="75.0859" x="1170.8232" y="1222.0195"/><text fill="#000000" font-family="sans-serif" font-size="14" lengthAdjust="spacing" textLength="61.0859" x="1177.8232" y="1242.5547">Validator</text></g><g class="participant participant-head" data-participant="FS"><rect fill="#E2E2F0" height="30.4883" rx="2.5" ry="2.5" style="stroke:#181818;stroke-width:0.5;" width="92.4971" x="1446.0015" y="87.4883"/><text fill="#000000" font-family="sans-serif" font-size="14" lengthAdjust="spacing" textLength="78.4971" x="1453.0015" y="108.0234">File_System</text></g><g class="participant participant-tail" data-participant="FS"><rect fill="#E2E2F0" height="30.4883" rx="2.5" ry="2.5" style="stroke:#181818;stroke-width:0.5;" width="92.4971" x="1446.0015" y="1222.0195"/><text fill="#000000" font-family="sans-serif" font-size="14" lengthAdjust="spacing" textLength="78.4971" x="1453.0015" y="1242.5547">File_System</text></g><g><title>TZif.API</title><rect fill="#FFFFFF" height="869.248" style="stroke:#181818;stroke-width:1;" width="10" x="502.8018" y="285.1504"/></g><g><title>Source_Scanner</title><rect fill="#FFFFFF" height="792.3164" style="stroke:#181818;stroke-width:1;" width="10" x="892.7466" y="332.7715"/></g><g><title>Source_Scanner</title><rect fill="#FFFFFF" height="159.4844" style="stroke:#181818;stroke-width:1;" width="10" x="897.7466" y="857.6719"/></g><g><title>Path_Tracker</title><rect fill="#FFFFFF" height="29.3105" style="stroke:#181818;stroke-width:1;" width="10" x="1105.0288" y="362.082"/></g><g><title>Path_Tracker</title><rect fill="#FFFFFF" height="29.3105" style="stroke:#181818;stroke-width:1;" width="10" x="1105.0288" y="575.5664"/></g><g><title>Path_Tracker</title><rect fill="#FFFFFF" height="29.3105" style="stroke:#181818;stroke-width:1;" width="10" x="1105.0288" y="634.1875"/></g><g><title>Validator</title><rect fill="#FFFFFF" height="395.9688" style="stroke:#181818;stroke-width:1;" width="10" x="1203.3662" y="692.8086"/></g><g><title>File_System</title><rect fill="#FFFFFF" height="39.9658" style="stroke:#181818;stroke-width:1;" width="10" x="1487.25" y="506.29"/></g><g><title>File_System</title><rect fill="#FFFFFF" height="29.3105" style="stroke:#181818;stroke-width:1;" width="10" x="1487.25" y="722.1191"/></g><g><title>File_System</title><rect fill="#FFFFFF" height="29.3105" style="stroke:#181818;stroke-width:1;" width="10" x="1487.25" y="780.7402"/></g><path d="M512,133.9766 L512,158.9766 L642,158.9766 L642,143.9766 L632,133.9766 L512,133.9766" fill="#FEFFDD" style="stroke:#181818;stroke-width:0.5;"/><path d="M632,133.9766 L632,143.9766 L642,143.9766 L632,133.9766" fill="#FEFFDD" style="stroke:#181818;stroke-width:0.5;"/><text fill="#000000" font-family="sans-serif" font-size="13" lengthAdjust="spacing" textLength="109.1479" x="518" y="151.5449">Public API Facade</text><path d="M1115,169.2871 L1115,240.2871 L1331,240.2871 L1331,179.2871 L1321,169.2871 L1115,169.2871" fill="#FEFFDD" style="stroke:#181818;stroke-width:0.5;"/><path d="M1321,169.2871 L1321,179.2871 L1331,179.2871 L1321,169.2871" fill="#FEFFDD" style="stroke:#181818;stroke-width:0.5;"/><text fill="#000000" font-family="sans-serif" font-size="13" lengthAdjust="spacing" textLength="151.6328" x="1121" y="186.8555">Infinite Loop Protection:</text><text fill="#000000" font-family="sans-serif" font-size="13" lengthAdjust="spacing" textLength="137.6426" x="1121" y="202.166">- Visited directory set</text><text fill="#000000" font-family="sans-serif" font-size="13" lengthAdjust="spacing" textLength="195.6855" x="1121" y="217.4766">- Canonical path deduplication</text><text fill="#000000" font-family="sans-serif" font-size="13" lengthAdjust="spacing" textLength="146.25" x="1121" y="232.7871">- Depth limit: 15 levels</text><g class="message" data-participant-1="Developer" data-participant-2="API"><polygon fill="#181818" points="490.8018,281.1504,500.8018,285.1504,490.8018,289.1504,494.8018,285.1504" style="stroke:#181818;stroke-width:1;"/><line style="stroke:#181818;stroke-width:1;" x1="125.1592" x2="496.8018" y1="285.1504" y2="285.1504"/><text fill="#000000" font-family="sans-serif" font-size="13" lengthAdjust="spacing" textLength="358.6426" x="132.1592" y="280.4082">Discover_Sources(["/usr/share/zoneinfo", "/opt/tzdata"])</text></g><path d="M517,250.5293 L517,305.5293 L751,305.5293 L751,260.5293 L741,250.5293 L517,250.5293" fill="#FEFFDD" style="stroke:#181818;stroke-width:0.5;"/><path d="M741,250.5293 L741,260.5293 L751,260.5293 L741,250.5293" fill="#FEFFDD" style="stroke:#181818;stroke-width:0.5;"/><text fill="#000000" font-family="sans-serif" font-size="13" lengthAdjust="spacing" textLength="171.8818" x="523" y="268.0977">Developer provides explicit</text><text fill="#000000" font-family="sans-serif" font-size="13" lengthAdjust="spacing" textLength="124.522" x="523" y="283.4082">list of paths to scan</text><text fill="#000000" font-family="sans-serif" font-size="13" lengthAdjust="spacing" textLength="213.9414" x="523" y="298.7188">(not system-wide automatic scan)</text><g class="message" data-participant-1="API" data-participant-2="Scanner"><polygon fill="#181818" points="880.7466,328.7715,890.7466,332.7715,880.7466,336.7715,884.7466,332.7715" style="stroke:#181818;stroke-width:1;"/><line style="stroke:#181818;stroke-width:1;" x1="512.8018" x2="886.7466" y1="332.7715" y2="332.7715"/><text fill="#000000" font-family="sans-serif" font-size="13" lengthAdjust="spacing" textLength="194.8857" x="519.8018" y="328.0293">Scan_Directories(search_paths)</text></g><g class="message" data-participant-1="Scanner" data-participant-2="Tracker"><polygon fill="#181818" points="1093.0288,358.082,1103.0288,362.082,1093.0288,366.082,1097.0288,362.082" style="stroke:#181818;stroke-width:1;"/><line style="stroke:#181818;stroke-width:1;" x1="902.7466" x2="1099.0288" y1="362.082" y2="362.082"/><text fill="#000000" font-family="sans-serif" font-size="13" lengthAdjust="spacing" textLength="137.0713" x="909.7466" y="357.3398">Initialize_Visited_Set()</text></g><g class="message" data-participant-1="Tracker" data-participant-2="Scanner"><polygon fill="#181818" points="913.7466,387.3926,903.7466,391.3926,913.7466,395.3926,909.7466,391.3926" style="stroke:#181818;stroke-width:1;"/><line style="stroke:#181818;stroke-width:1;stroke-dasharray:2,2;" x1="907.7466" x2="1109.0288" y1="391.3926" y2="391.3926"/><text fill="#000000" font-family="sans-serif" font-size="13" lengthAdjust="spacing" textLength="64.6255" x="919.7466" y="386.6504">Empty_Set</text></g><path d="M827.8091,406.3926 L902.2559,406.3926 L902.2559,413.7031 L892.2559,423.7031 L827.8091,423.7031 L827.8091,406.3926" fill="#EEEEEE" style="stroke:#000000;stroke-width:1.5;"/><rect fill="none" height="690.3848" style="stroke:#000000;stroke-width:1.5;" width="866.7241" x="827.8091" y="406.3926"/><text fill="#000000" font-family="sans-serif" font-size="13" font-weight="bold" lengthAdjust="spacing" textLength="29.4468" x="842.8091" y="419.9609">loop</text><text fill="#000000" font-family="sans-serif" font-size="11" font-weight="bold" lengthAdjust="spacing" textLength="177.1172" x="917.2559" y="419.0273">[For each path in Search_Paths]</text><g class="message" data-participant-1="Scanner" data-participant-2="Scanner"><line style="stroke:#181818;stroke-width:1;" x1="902.7466" x2="944.7466" y1="449.1689" y2="449.1689"/><line style="stroke:#181818;stroke-width:1;" x1="944.7466" x2="944.7466" y1="449.1689" y2="462.1689"/><line style="stroke:#181818;stroke-width:1;" x1="903.7466" x2="944.7466" y1="462.1689" y2="462.1689"/><polygon fill="#181818" points="913.7466,458.1689,903.7466,462.1689,913.7466,466.1689,909.7466,462.1689" style="stroke:#181818;stroke-width:1;"/><text fill="#000000" font-family="sans-serif" font-size="13" lengthAdjust="spacing" textLength="163.3442" x="909.7466" y="444.4268">Check path is not symlink</text></g><path d="M1094.3442,428.7031 L1094.3442,468.7031 L1385.3442,468.7031 L1385.3442,438.7031 L1375.3442,428.7031 L1094.3442,428.7031" fill="#FEFFDD" style="stroke:#181818;stroke-width:0.5;"/><path d="M1375.3442,428.7031 L1375.3442,438.7031 L1385.3442,438.7031 L1375.3442,428.7031" fill="#FEFFDD" style="stroke:#181818;stroke-width:0.5;"/><text fill="#000000" font-family="sans-serif" font-size="13" lengthAdjust="spacing" textLength="243.3564" x="1100.3442" y="446.2715">Directory symlinks are NEVER followed</text><text fill="#000000" font-family="sans-serif" font-size="13" lengthAdjust="spacing" textLength="270.5688" x="1100.3442" y="461.582">during discovery (security/loop protection)</text><g class="message" data-participant-1="Scanner" data-participant-2="FS"><polygon fill="#181818" points="1475.25,502.29,1485.25,506.29,1475.25,510.29,1479.25,506.29" style="stroke:#181818;stroke-width:1;"/><line style="stroke:#181818;stroke-width:1;" x1="902.7466" x2="1481.25" y1="506.29" y2="506.29"/><text fill="#000000" font-family="sans-serif" font-size="13" lengthAdjust="spacing" textLength="160.1895" x="909.7466" y="501.5479">Get_Canonical_Path(path)</text></g><path d="M1502,479.3242 L1502,519.3242 L1689,519.3242 L1689,489.3242 L1679,479.3242 L1502,479.3242" fill="#FEFFDD" style="stroke:#181818;stroke-width:0.5;"/><path d="M1679,479.3242 L1679,489.3242 L1689,489.3242 L1679,479.3242" fill="#FEFFDD" style="stroke:#181818;stroke-width:0.5;"/><text fill="#000000" font-family="sans-serif" font-size="13" lengthAdjust="spacing" textLength="166.2832" x="1508" y="496.8926">Ada.Directories.Full_Name</text><text fill="#000000" font-family="sans-serif" font-size="13" lengthAdjust="spacing" textLength="158.9136" x="1508" y="512.2031">resolves to absolute path</text><g class="message" data-participant-1="FS" data-participant-2="Scanner"><polygon fill="#181818" points="913.7466,542.2559,903.7466,546.2559,913.7466,550.2559,909.7466,546.2559" style="stroke:#181818;stroke-width:1;"/><line style="stroke:#181818;stroke-width:1;stroke-dasharray:2,2;" x1="907.7466" x2="1491.25" y1="546.2559" y2="546.2559"/><text fill="#000000" font-family="sans-serif" font-size="13" lengthAdjust="spacing" textLength="95.4434" x="919.7466" y="541.5137">Canonical_Path</text></g><g class="message" data-participant-1="Scanner" data-participant-2="Tracker"><polygon fill="#181818" points="1093.0288,571.5664,1103.0288,575.5664,1093.0288,579.5664,1097.0288,575.5664" style="stroke:#181818;stroke-width:1;"/><line style="stroke:#181818;stroke-width:1;" x1="902.7466" x2="1099.0288" y1="575.5664" y2="575.5664"/><text fill="#000000" font-family="sans-serif" font-size="13" lengthAdjust="spacing" textLength="167.8447" x="909.7466" y="570.8242">Is_Visited(canonical_path)?</text></g><g class="message" data-participant-1="Tracker" data-participant-2="Scanner"><polygon fill="#181818" points="913.7466,600.877,903.7466,604.877,913.7466,608.877,909.7466,604.877" style="stroke:#181818;stroke-width:1;"/><line style="stroke:#181818;stroke-width:1;stroke-dasharray:2,2;" x1="907.7466" x2="1109.0288" y1="604.877" y2="604.877"/><text fill="#000000" font-family="sans-serif" font-size="13" lengthAdjust="spacing" textLength="17.5894" x="919.7466" y="600.1348">No</text></g><g class="message" data-participant-1="Scanner" data-participant-2="Tracker"><polygon fill="#181818" points="1093.0288,630.1875,1103.0288,634.1875,1093.0288,638.1875,1097.0288,634.1875" style="stroke:#181818;stroke-width:1;"/><line style="stroke:#181818;stroke-width:1;" x1="902.7466" x2="1099.0288" y1="634.1875" y2="634.1875"/><text fill="#000000" font-family="sans-serif" font-size="13" lengthAdjust="spacing" textLength="183.2822" x="909.7466" y="629.4453">Mark_Visited(canonical_path)</text></g><g class="message" data-participant-1="Tracker" data-participant-2="Scanner"><polygon fill="#181818" points="913.7466,659.498,903.7466,663.498,913.7466,667.498,909.7466,663.498" style="stroke:#181818;stroke-width:1;"/><line style="stroke:#181818;stroke-width:1;stroke-dasharray:2,2;" x1="907.7466" x2="1109.0288" y1="663.498" y2="663.498"/><text fill="#000000" font-family="sans-serif" font-size="13" lengthAdjust="spacing" textLength="18.5859" x="919.7466" y="658.7559">OK</text></g><g class="message" data-participant-1="Scanner" data-participant-2="Val"><polygon fill="#181818" points="1191.3662,688.8086,1201.3662,692.8086,1191.3662,696.8086,1195.3662,692.8086" style="stroke:#181818;stroke-width:1;"/><line style="stroke:#181818;stroke-width:1;" x1="902.7466" x2="1197.3662" y1="692.8086" y2="692.8086"/><text fill="#000000" font-family="sans-serif" font-size="13" lengthAdjust="spacing" textLength="200.0845" x="909.7466" y="688.0664">Validate_Source_Structure(path)</text></g><g class="message" data-participant-1="Val" data-participant-2="FS"><polygon fill="#181818" points="1475.25,718.1191,1485.25,722.1191,1475.25,726.1191,1479.25,722.1191" style="stroke:#181818;stroke-width:1;"/><line style="stroke:#181818;stroke-width:1;" x1="1213.3662" x2="1481.25" y1="722.1191" y2="722.1191"/><text fill="#000000" font-family="sans-serif" font-size="13" lengthAdjust="spacing" textLength="143.2983" x="1220.3662" y="717.377">Directory_Exists(path)?</text></g><g class="message" data-participant-1="FS" data-participant-2="Val"><polygon fill="#181818" points="1224.3662,747.4297,1214.3662,751.4297,1224.3662,755.4297,1220.3662,751.4297" style="stroke:#181818;stroke-width:1;"/><line style="stroke:#181818;stroke-width:1;stroke-dasharray:2,2;" x1="1218.3662" x2="1491.25" y1="751.4297" y2="751.4297"/><text fill="#000000" font-family="sans-serif" font-size="13" lengthAdjust="spacing" textLength="21.9692" x="1230.3662" y="746.6875">Yes</text></g><g class="message" data-participant-1="Val" data-participant-2="FS"><polygon fill="#181818" points="1475.25,776.7402,1485.25,780.7402,1475.25,784.7402,1479.25,780.7402" style="stroke:#181818;stroke-width:1;"/><line style="stroke:#181818;stroke-width:1;" x1="1213.3662" x2="1481.25" y1="780.7402" y2="780.7402"/><text fill="#000000" font-family="sans-serif" font-size="13" lengthAdjust="spacing" textLength="254.8838" x="1220.3662" y="775.998">Read_VERSION_File(path &amp; "/+VERSION")</text></g><g class="message" data-participant-1="FS" data-participant-2="Val"><polygon fill="#181818" points="1224.3662,806.0508,1214.3662,810.0508,1224.3662,814.0508,1220.3662,810.0508" style="stroke:#181818;stroke-width:1;"/><line style="stroke:#181818;stroke-width:1;stroke-dasharray:2,2;" x1="1218.3662" x2="1491.25" y1="810.0508" y2="810.0508"/><text fill="#000000" font-family="sans-serif" font-size="13" lengthAdjust="spacing" textLength="50.7749" x="1230.3662" y="805.3086">"2024b"</text></g><g class="message" data-participant-1="Val" data-participant-2="Scanner"><polygon fill="#181818" points="918.7466,853.6719,908.7466,857.6719,918.7466,861.6719,914.7466,857.6719" style="stroke:#181818;stroke-width:1;"/><line style="stroke:#181818;stroke-width:1;" x1="912.7466" x2="1202.3662" y1="857.6719" y2="857.6719"/><text fill="#000000" font-family="sans-serif" font-size="13" lengthAdjust="spacing" textLength="248.6885" x="924.7466" y="852.9297">Recursive_Count_Zones(path, depth=0)</text></g><path d="M1218,823.0508 L1218,878.0508 L1457,878.0508 L1457,833.0508 L1447,823.0508 L1218,823.0508" fill="#FEFFDD" style="stroke:#181818;stroke-width:0.5;"/><path d="M1447,823.0508 L1447,833.0508 L1457,833.0508 L1447,823.0508" fill="#FEFFDD" style="stroke:#181818;stroke-width:0.5;"/><text fill="#000000" font-family="sans-serif" font-size="13" lengthAdjust="spacing" textLength="218.9941" x="1224" y="840.6191">Recursively traverse subdirectories</text><text fill="#000000" font-family="sans-serif" font-size="13" lengthAdjust="spacing" textLength="176.3823" x="1224" y="855.9297">Track depth to enforce limit</text><text fill="#000000" font-family="sans-serif" font-size="13" lengthAdjust="spacing" textLength="150.4585" x="1224" y="871.2402">Skip symlink directories</text><g class="message" data-participant-1="Scanner" data-participant-2="Scanner"><line style="stroke:#181818;stroke-width:1;" x1="907.7466" x2="949.7466" y1="940.0693" y2="940.0693"/><line style="stroke:#181818;stroke-width:1;" x1="949.7466" x2="949.7466" y1="940.0693" y2="953.0693"/><line style="stroke:#181818;stroke-width:1;" x1="908.7466" x2="949.7466" y1="953.0693" y2="953.0693"/><polygon fill="#181818" points="918.7466,949.0693,908.7466,953.0693,918.7466,957.0693,914.7466,953.0693" style="stroke:#181818;stroke-width:1;"/><text fill="#000000" font-family="sans-serif" font-size="13" lengthAdjust="spacing" textLength="166.1055" x="914.7466" y="935.3271">For each entry in directory</text></g><path d="M1107.1055,888.9824 L1107.1055,989.9824 L1283.1055,989.9824 L1283.1055,898.9824 L1273.1055,888.9824 L1107.1055,888.9824" fill="#FEFFDD" style="stroke:#181818;stroke-width:0.5;"/><path d="M1273.1055,888.9824 L1273.1055,898.9824 L1283.1055,898.9824 L1273.1055,888.9824" fill="#FEFFDD" style="stroke:#181818;stroke-width:0.5;"/><text fill="#000000" font-family="sans-serif" font-size="13" lengthAdjust="spacing" textLength="155.8159" x="1113.1055" y="906.5508">If ordinary_file: count++</text><text fill="#000000" font-family="sans-serif" font-size="13" lengthAdjust="spacing" textLength="72.8711" x="1113.1055" y="921.8613">If directory:</text><text fill="#000000" font-family="sans-serif" font-size="13" lengthAdjust="spacing" textLength="128.9653" x="1121.332" y="937.1719">- Get canonical path</text><text fill="#000000" font-family="sans-serif" font-size="13" lengthAdjust="spacing" textLength="120.4976" x="1121.332" y="952.4824">- Check not visited</text><text fill="#000000" font-family="sans-serif" font-size="13" lengthAdjust="spacing" textLength="125.8486" x="1121.332" y="967.793">- Check depth &lt; 15</text><text fill="#000000" font-family="sans-serif" font-size="13" lengthAdjust="spacing" textLength="125.2012" x="1121.332" y="983.1035">- Recurse if all pass</text><g class="message" data-participant-1="Scanner" data-participant-2="Val"><polygon fill="#181818" points="1191.3662,1013.1563,1201.3662,1017.1563,1191.3662,1021.1563,1195.3662,1017.1563" style="stroke:#181818;stroke-width:1;"/><line style="stroke:#181818;stroke-width:1;stroke-dasharray:2,2;" x1="902.7466" x2="1197.3662" y1="1017.1563" y2="1017.1563"/><text fill="#000000" font-family="sans-serif" font-size="13" lengthAdjust="spacing" textLength="118.8535" x="909.7466" y="1012.4141">Zone_Count = 599</text></g><g class="message" data-participant-1="Val" data-participant-2="Val"><line style="stroke:#181818;stroke-width:1;" x1="1213.3662" x2="1255.3662" y1="1046.4668" y2="1046.4668"/><line style="stroke:#181818;stroke-width:1;" x1="1255.3662" x2="1255.3662" y1="1046.4668" y2="1059.4668"/><line style="stroke:#181818;stroke-width:1;" x1="1214.3662" x2="1255.3662" y1="1059.4668" y2="1059.4668"/><polygon fill="#181818" points="1224.3662,1055.4668,1214.3662,1059.4668,1224.3662,1063.4668,1220.3662,1059.4668" style="stroke:#181818;stroke-width:1;"/><text fill="#000000" font-family="sans-serif" font-size="13" lengthAdjust="spacing" textLength="100.9277" x="1220.3662" y="1041.7246">Generate_ULID()</text></g><path d="M1342.9277,1033.6563 L1342.9277,1058.6563 L1564.9277,1058.6563 L1564.9277,1043.6563 L1554.9277,1033.6563 L1342.9277,1033.6563" fill="#FEFFDD" style="stroke:#181818;stroke-width:0.5;"/><path d="M1554.9277,1033.6563 L1554.9277,1043.6563 L1564.9277,1043.6563 L1554.9277,1033.6563" fill="#FEFFDD" style="stroke:#181818;stroke-width:0.5;"/><text fill="#000000" font-family="sans-serif" font-size="13" lengthAdjust="spacing" textLength="201.0493" x="1348.9277" y="1051.2246">Unique identifier for this source</text><g class="message" data-participant-1="Val" data-participant-2="Scanner"><polygon fill="#181818" points="913.7466,1084.7773,903.7466,1088.7773,913.7466,1092.7773,909.7466,1088.7773" style="stroke:#181818;stroke-width:1;"/><line style="stroke:#181818;stroke-width:1;stroke-dasharray:2,2;" x1="907.7466" x2="1207.3662" y1="1088.7773" y2="1088.7773"/><text fill="#000000" font-family="sans-serif" font-size="13" lengthAdjust="spacing" textLength="239.6367" x="919.7466" y="1084.0352">Source_Info(ULID, path, "2024b", 599)</text></g><g class="message" data-participant-1="Scanner" data-participant-2="API"><polygon fill="#181818" points="523.8018,1121.0879,513.8018,1125.0879,523.8018,1129.0879,519.8018,1125.0879" style="stroke:#181818;stroke-width:1;"/><line style="stroke:#181818;stroke-width:1;stroke-dasharray:2,2;" x1="517.8018" x2="896.7466" y1="1125.0879" y2="1125.0879"/><text fill="#000000" font-family="sans-serif" font-size="13" lengthAdjust="spacing" textLength="355.9448" x="529.8018" y="1120.3457">Discovery_Result[sources=[Source1, Source2], errors=[]]</text></g><g class="message" data-participant-1="API" data-participant-2="Developer"><polygon fill="#181818" points="136.1592,1150.3984,126.1592,1154.3984,136.1592,1158.3984,132.1592,1154.3984" style="stroke:#181818;stroke-width:1;"/><line style="stroke:#181818;stroke-width:1;stroke-dasharray:2,2;" x1="130.1592" x2="506.8018" y1="1154.3984" y2="1154.3984"/><text fill="#000000" font-family="sans-serif" font-size="13" lengthAdjust="spacing" textLength="182.7554" x="142.1592" y="1149.6563">Result[Discovery_Data, Error]</text></g><path d="M5,1167.3984 L5,1207.3984 L246,1207.3984 L246,1177.3984 L236,1167.3984 L5,1167.3984" fill="#FEFFDD" style="stroke:#181818;stroke-width:0.5;"/><path d="M236,1167.3984 L236,1177.3984 L246,1177.3984 L236,1167.3984" fill="#FEFFDD" style="stroke:#181818;stroke-width:0.5;"/><text fill="#000000" font-family="sans-serif" font-size="13" lengthAdjust="spacing" textLength="220.8159" x="11" y="1184.9668">All sources discovered sequentially</text><text fill="#000000" font-family="sans-serif" font-size="13" lengthAdjust="spacing" textLength="176.1729" x="11" y="1200.2773">with infinite loop protection</text><!--SRC=[bLPjRzis4FwkNt7mXy56_984wuSQouOYjWjZNHh4RO0r20H6EjU4QL8ZAQVEhz-Hb2Z9JehjasNU-_CSxsYv5GWpRZArHmqhLUeC3VHN-4-9qd8cO9Kn2IFONupFn-U3966PLHfck4UX2jH9mRJb6I-OjD3xyeslnnzkbprW1kWtaSeYQFvzOq6j_Gd0RVaaUER-m89bBCS4PGvEi-iiP9Ew12HgxxBwxkhTChj9lsYMRIkjwlieU7qAi9HhBZd9FYbLmAqcjSno9QSa6y4zDoJB8USQNQq7C6Yzv9f99Nb6e1GK4dBCou8gOSxMAyome7F1TznEuU8T28UIUQEyUoPupYY0pvd-TSKBBgZsWx6uymgBLP94r67qkyDl6gbBA-hw3xr9QVJ4R9Z6oOkIoELQzORGcwZ2JkmBHMIznu6ZaUyPOT1bYSfeWXHQxNbE_O0_N9tSIGKt7as7W06hm10bTDud7s1ykgDdCW9MMhKZQ3AlCMX0I1pnb7_5vTH_fBCARKur66GwswG-H2lJcloa-d1EAbAdn2btxSfVCAq8J5Te-otpcl_g5qRj7EQxmXwSHPBZYKKYN9yigEr9jWdaSmchaAPhFqC8jBAARgytc6qh0mC1eftWSalw7T09zgRTWee1eX1kvlVpErWh8TGpvbupBpMNtwa_0_K78C0oEhE7YK-qY0qz8Fq6zqwAYzKKFg9DOq_xElekLMSLCQ2sEqdrGyx6BRx6YrA8z8Rjq4ir6YNsw9k3FT5tISRERpiP8CTT1hg9a4AB2DVxdUmRsarDTp-B3dmHVxIhQEx-g-pVg6wyIFphGVzYUljMsFyHzVEV_oKg3OOfLBC2qtecMbrcjjHuIfWR9FIVVcgQOsUbynzqUqt_51_FSiM83_WtcjSeQ7czGvQdr9khvUURr0qhxnP-eKbpLXtt1Z-DqRiyl_prgVUJE16gEzVWXkynlLQbjEat6coXZY4Pqz2zEk_4gaV5IUj6H-80LZEwFWR1b4zvqyvUptCHNBi-HXgYX7iOxLvXjUL5VLEXQ_t6ZOl5n4526vPkBqsIk6fE4rwkGUcSIqRqhGdbAMGEWREpMXfjf_x4hI6wrv1rTbKKXO7a1j4-zE-H95Jy6oslA0YG8V0rCE7ScJUBh9brz0Icu0hUlN_VfJZEySYpD_g8TEXw_EkdvQm_E8NYg-JqAW5QBlGoMNCAIAI0tT1aDVvQ7ANbdNSMJRWyjFvLtmKPGkYWgX67BjL1DrT_cyXfQ-aShzv3UeUc5FOX966k7aASYs4LyF9n2AYrqYHwV4nUGyAlH78STwzhUU-qYJAZpJs4kNFKSU8MUDZW_WtNlCneK1DVLLPnNT3BniJNdN0TzypzFglUH4ShfDdR_m80]--></g></svg>