<svg xmlns="http://www.w3.org/2000/svg" xmlns:xlink="http://www.w3.org/1999/xlink" contentStyleType="text/css" data-diagram-type="CLASS" height="821px" preserveAspectRatio="none" style="width:1404px;height:821px;background:#FFFFFF;" version="1.1" viewBox="0 0 1404 821" width="1404px" zoomAndPan="magnify"><title>Generic Repository Pattern
Dependency Inversion via Ada Generics</title><defs/><g><g class="title" data-source-line="2"><text fill="#000000" font-family="sans-serif" font-size="14" font-weight="bold" lengthAdjust="spacing" textLength="193.252" x="598.584" y="23.5352">Generic Repository Pattern</text><text fill="#000000" font-family="sans-serif" font-size="14" font-weight="bold" lengthAdjust="spacing" textLength="285.2637" x="552.5782" y="40.0234">Dependency Inversion via Ada Generics</text></g><!--cluster Platform Abstraction--><g class="cluster" data-entity="Platform Abstraction" data-source-line="7" data-uid="ent0002" id="cluster_Platform Abstraction"><rect fill="#E6F3FF" height="142.95" rx="2.5" ry="2.5" style="stroke:#000000;stroke-width:1.5;" width="348" x="534.42" y="417.4166"/><text fill="#000000" font-family="sans-serif" font-size="14" font-weight="bold" lengthAdjust="spacing" textLength="149.9258" x="633.4571" y="432.9517">Platform Abstraction</text></g><!--cluster Platform Implementations--><g class="cluster" data-entity="Platform Implementations" data-source-line="14" data-uid="ent0004" id="cluster_Platform Implementations"><rect fill="#FFEBCD" height="131.98" rx="2.5" ry="2.5" style="stroke:#000000;stroke-width:1.5;" width="450" x="489.42" y="609.3666"/><text fill="#000000" font-family="sans-serif" font-size="14" font-weight="bold" lengthAdjust="spacing" textLength="187.749" x="620.5455" y="624.9017">Platform Implementations</text></g><!--cluster Generic Repositories--><g class="cluster" data-entity="Generic Repositories" data-source-line="25" data-uid="ent0007" id="cluster_Generic Repositories"><rect fill="#E8F5E9" height="159.44" rx="2.5" ry="2.5" style="stroke:#000000;stroke-width:1.5;" width="480" x="460.42" y="208.9766"/><text fill="#000000" font-family="sans-serif" font-size="14" font-weight="bold" lengthAdjust="spacing" textLength="149.2217" x="625.8092" y="224.5117">Generic Repositories</text></g><!--cluster POSIX Instantiations--><g class="cluster" data-entity="POSIX Instantiations" data-source-line="41" data-uid="ent0010" id="cluster_POSIX Instantiations"><rect fill="#FFF9E6" height="99" rx="2.5" ry="2.5" style="stroke:#000000;stroke-width:1.5;" width="407" x="176.42" y="60.9766"/><text fill="#000000" font-family="sans-serif" font-size="14" font-weight="bold" lengthAdjust="spacing" textLength="146.2891" x="306.7755" y="76.5117">POSIX Instantiations</text></g><!--cluster Windows Instantiations--><g class="cluster" data-entity="Windows Instantiations" data-source-line="46" data-uid="ent0013" id="cluster_Windows Instantiations"><rect fill="#FFF9E6" height="99" rx="2.5" ry="2.5" style="stroke:#000000;stroke-width:1.5;" width="450" x="948.42" y="60.9766"/><text fill="#000000" font-family="sans-serif" font-size="14" font-weight="bold" lengthAdjust="spacing" textLength="168.8135" x="1089.0133" y="76.5117">Windows Instantiations</text></g><!--class PlatformOps--><g class="entity" data-entity="PlatformOps" data-source-line="8" data-uid="ent0003" id="entity_PlatformOps"><rect fill="#F1F1F1" height="91.9531" rx="2.5" ry="2.5" style="stroke:#181818;stroke-width:0.5;" width="315.2285" x="550.81" y="452.4166"/><ellipse cx="634.6972" cy="473.9048" fill="#B4A7E5" rx="11" ry="11" style="stroke:#181818;stroke-width:1;"/><path d="M631.1249,470.17 L631.1249,468.0118 L638.5043,468.0118 L638.5043,470.17 L636.039,470.17 L636.039,478.2466 L638.5043,478.2466 L638.5043,480.4048 L631.1249,480.4048 L631.1249,478.2466 L633.5903,478.2466 L633.5903,470.17 Z " fill="#000000"/><text fill="#000000" font-family="sans-serif" font-size="14" font-style="italic" lengthAdjust="spacing" textLength="138.9541" x="655.1972" y="470.9517">Platform_Operations</text><text fill="#000000" font-family="sans-serif" font-size="14" font-style="italic" lengthAdjust="spacing" textLength="64.6338" x="692.3574" y="487.44">&#171;generic&#187;</text><line style="stroke:#181818;stroke-width:0.5;" x1="551.81" x2="865.0385" y1="495.3931" y2="495.3931"/><line style="stroke:#181818;stroke-width:0.5;" x1="551.81" x2="865.0385" y1="503.3931" y2="503.3931"/><text fill="#000000" font-family="sans-serif" font-size="14" lengthAdjust="spacing" textLength="215.7969" x="556.81" y="520.9283">+Read_Link(Path): String_Result</text><text fill="#000000" font-family="sans-serif" font-size="14" lengthAdjust="spacing" textLength="303.2285" x="556.81" y="537.4166">+Get_System_Timezone_Id(): Zone_Id_Result</text></g><!--class POSIXOps--><g class="entity" data-entity="POSIXOps" data-source-line="15" data-uid="ent0005" id="entity_POSIXOps"><rect fill="#F1F1F1" height="80.9766" rx="2.5" ry="2.5" style="stroke:#181818;stroke-width:0.5;" width="181.6406" x="505.6" y="644.3666"/><ellipse cx="534.822" cy="660.3666" fill="#CCFFCC" rx="11" ry="11" style="stroke:#181818;stroke-width:1;"/><path d="M533.6155,656.5321 L533.6155,660.1678 L534.6199,660.1678 Q535.8235,660.1678 536.3091,659.7611 Q536.7947,659.3544 536.7947,658.35 Q536.7947,657.3456 536.3091,656.9388 Q535.8235,656.5321 534.6199,656.5321 Z M531.1667,654.4735 L534.5286,654.4735 Q537.0935,654.4735 538.2183,655.3866 Q539.343,656.2997 539.343,658.35 Q539.343,660.4003 538.2183,661.3133 Q537.0935,662.2264 534.5286,662.2264 L533.6155,662.2264 L533.6155,666.8666 L531.1667,666.8666 Z " fill="#000000"/><text fill="#000000" font-family="sans-serif" font-size="14" lengthAdjust="spacing" textLength="118.0361" x="551.9825" y="665.6576">POSIX.Operations</text><line style="stroke:#181818;stroke-width:0.5;" x1="506.6" x2="686.2406" y1="676.3666" y2="676.3666"/><text fill="#000000" font-family="sans-serif" font-size="14" lengthAdjust="spacing" textLength="169.6406" x="511.6" y="693.9017">/etc/localtime resolution</text><line style="stroke:#181818;stroke-width:0.5;" x1="506.6" x2="686.2406" y1="700.8548" y2="700.8548"/><text fill="#000000" font-family="sans-serif" font-size="14" lengthAdjust="spacing" textLength="152.0996" x="511.6" y="718.39">readlink() for symlinks</text></g><!--class WindowsOps--><g class="entity" data-entity="WindowsOps" data-source-line="20" data-uid="ent0006" id="entity_WindowsOps"><rect fill="#F1F1F1" height="64.4883" rx="2.5" ry="2.5" style="stroke:#181818;stroke-width:0.5;" width="201.0752" x="721.88" y="652.6166"/><ellipse cx="750.3545" cy="668.6166" fill="#FFCCCC" rx="11" ry="11" style="stroke:#181818;stroke-width:1;"/><path d="M745.3545,663.4735 L747.4961,663.4735 L748.3843,672.5712 L749.4551,666.6859 L751.4888,666.6859 L752.7339,672.5712 L753.4312,663.4735 L755.5894,663.4735 L754.1616,675.8666 L751.8789,675.8666 L750.4678,669.3588 L749.148,675.8666 L746.8819,675.8666 Z " fill="#000000"/><text fill="#000000" font-family="sans-serif" font-size="14" lengthAdjust="spacing" textLength="139.1318" x="767.3488" y="673.9076">Windows.Operations</text><line style="stroke:#181818;stroke-width:0.5;" x1="722.88" x2="921.9552" y1="684.6166" y2="684.6166"/><text fill="#000000" font-family="sans-serif" font-size="14" lengthAdjust="spacing" textLength="189.0752" x="727.88" y="702.1517">Win32 API + CLDR mapping</text><line style="stroke:#181818;stroke-width:0.5;" x1="722.88" x2="921.9552" y1="709.1048" y2="709.1048"/></g><!--class RepoG--><g class="entity" data-entity="RepoG" data-source-line="26" data-uid="ent0008" id="entity_RepoG"><rect fill="#F1F1F1" height="108.4414" rx="2.5" ry="2.5" style="stroke:#181818;stroke-width:0.5;" width="218.5205" x="476.16" y="243.9766"/><ellipse cx="545.1073" cy="265.4648" fill="#ADD1B2" rx="11" ry="11" style="stroke:#181818;stroke-width:1;"/><path d="M547.5804,271.6079 Q546.9994,271.9067 546.3602,272.0562 Q545.721,272.2056 545.0155,272.2056 Q542.5086,272.2056 541.1888,270.5537 Q539.869,268.9019 539.869,265.7808 Q539.869,262.6514 541.1888,260.9995 Q542.5086,259.3477 545.0155,259.3477 Q545.721,259.3477 546.3685,259.4971 Q547.016,259.6465 547.5804,259.9453 L547.5804,262.668 Q546.9496,262.0869 546.356,261.8171 Q545.7625,261.5474 545.1317,261.5474 Q543.787,261.5474 543.1021,262.614 Q542.4173,263.6807 542.4173,265.7808 Q542.4173,267.8726 543.1021,268.9392 Q543.787,270.0059 545.1317,270.0059 Q545.7625,270.0059 546.356,269.7361 Q546.9496,269.4663 547.5804,268.8853 Z " fill="#000000"/><text fill="#000000" font-family="sans-serif" font-size="14" lengthAdjust="spacing" textLength="72.126" x="565.6073" y="262.5117">Repository</text><text fill="#000000" font-family="sans-serif" font-size="14" lengthAdjust="spacing" textLength="64.6338" x="569.3534" y="279">&#171;generic&#187;</text><line style="stroke:#181818;stroke-width:0.5;" x1="477.16" x2="693.6805" y1="286.9531" y2="286.9531"/><text fill="#000000" font-family="sans-serif" font-size="14" lengthAdjust="spacing" textLength="144.3066" x="482.16" y="304.4883">formal: Platform_Ops</text><line style="stroke:#181818;stroke-width:1;" x1="477.16" x2="693.6805" y1="311.4414" y2="311.4414"/><text fill="#000000" font-family="sans-serif" font-size="14" lengthAdjust="spacing" textLength="182.6699" x="482.16" y="328.9766">+Find_By_Id(): Zone_Result</text><text fill="#000000" font-family="sans-serif" font-size="14" lengthAdjust="spacing" textLength="206.5205" x="482.16" y="345.4648">+Find_My_Id(): Zone_Id_Result</text></g><!--class ZoneRepoG--><g class="entity" data-entity="ZoneRepoG" data-source-line="33" data-uid="ent0009" id="entity_ZoneRepoG"><rect fill="#F1F1F1" height="108.4414" rx="2.5" ry="2.5" style="stroke:#181818;stroke-width:0.5;" width="194.6699" x="730.08" y="243.9766"/><ellipse cx="767.5769" cy="265.4648" fill="#ADD1B2" rx="11" ry="11" style="stroke:#181818;stroke-width:1;"/><path d="M770.0501,271.6079 Q769.469,271.9067 768.8299,272.0562 Q768.1907,272.2056 767.4851,272.2056 Q764.9783,272.2056 763.6585,270.5537 Q762.3386,268.9019 762.3386,265.7808 Q762.3386,262.6514 763.6585,260.9995 Q764.9783,259.3477 767.4851,259.3477 Q768.1907,259.3477 768.8382,259.4971 Q769.4856,259.6465 770.0501,259.9453 L770.0501,262.668 Q769.4192,262.0869 768.8257,261.8171 Q768.2322,261.5474 767.6013,261.5474 Q766.2566,261.5474 765.5718,262.614 Q764.887,263.6807 764.887,265.7808 Q764.887,267.8726 765.5718,268.9392 Q766.2566,270.0059 767.6013,270.0059 Q768.2322,270.0059 768.8257,269.7361 Q769.4192,269.4663 770.0501,268.8853 Z " fill="#000000"/><text fill="#000000" font-family="sans-serif" font-size="14" lengthAdjust="spacing" textLength="112.6768" x="786.5762" y="262.5117">Zone_Repository</text><text fill="#000000" font-family="sans-serif" font-size="14" lengthAdjust="spacing" textLength="64.6338" x="810.5977" y="279">&#171;generic&#187;</text><line style="stroke:#181818;stroke-width:0.5;" x1="731.08" x2="923.7499" y1="286.9531" y2="286.9531"/><text fill="#000000" font-family="sans-serif" font-size="14" lengthAdjust="spacing" textLength="144.3066" x="736.08" y="304.4883">formal: Platform_Ops</text><line style="stroke:#181818;stroke-width:1;" x1="731.08" x2="923.7499" y1="311.4414" y2="311.4414"/><text fill="#000000" font-family="sans-serif" font-size="14" lengthAdjust="spacing" textLength="182.6699" x="736.08" y="328.9766">+Find_By_Id(): Zone_Result</text><text fill="#000000" font-family="sans-serif" font-size="14" lengthAdjust="spacing" textLength="171.1035" x="736.08" y="345.4648">+Exists(): Boolean_Result</text></g><!--class POSIXRepo--><g class="entity" data-entity="POSIXRepo" data-source-line="42" data-uid="ent0011" id="entity_POSIXRepo"><rect fill="#F1F1F1" height="48" rx="2.5" ry="2.5" style="stroke:#181818;stroke-width:0.5;" width="150.0771" x="192.38" y="95.9766"/><ellipse cx="207.38" cy="111.9766" fill="#CCFFCC" rx="11" ry="11" style="stroke:#181818;stroke-width:1;"/><path d="M206.1735,108.1421 L206.1735,111.7778 L207.1779,111.7778 Q208.3815,111.7778 208.8671,111.3711 Q209.3527,110.9644 209.3527,109.96 Q209.3527,108.9556 208.8671,108.5488 Q208.3815,108.1421 207.1779,108.1421 Z M203.7247,106.0835 L207.0865,106.0835 Q209.6515,106.0835 210.7762,106.9966 Q211.901,107.9097 211.901,109.96 Q211.901,112.0103 210.7762,112.9233 Q209.6515,113.8364 207.0865,113.8364 L206.1735,113.8364 L206.1735,118.4766 L203.7247,118.4766 Z " fill="#000000"/><text fill="#000000" font-family="sans-serif" font-size="14" lengthAdjust="spacing" textLength="118.0771" x="221.38" y="117.2676">POSIX_Repository</text><line style="stroke:#181818;stroke-width:0.5;" x1="193.38" x2="341.4571" y1="127.9766" y2="127.9766"/><line style="stroke:#181818;stroke-width:0.5;" x1="193.38" x2="341.4571" y1="135.9766" y2="135.9766"/></g><!--class POSIXZoneRepo--><g class="entity" data-entity="POSIXZoneRepo" data-source-line="43" data-uid="ent0012" id="entity_POSIXZoneRepo"><rect fill="#F1F1F1" height="48" rx="2.5" ry="2.5" style="stroke:#181818;stroke-width:0.5;" width="190.6279" x="377.11" y="95.9766"/><ellipse cx="392.11" cy="111.9766" fill="#CCFFCC" rx="11" ry="11" style="stroke:#181818;stroke-width:1;"/><path d="M390.9035,108.1421 L390.9035,111.7778 L391.9079,111.7778 Q393.1115,111.7778 393.5971,111.3711 Q394.0827,110.9644 394.0827,109.96 Q394.0827,108.9556 393.5971,108.5488 Q393.1115,108.1421 391.9079,108.1421 Z M388.4547,106.0835 L391.8165,106.0835 Q394.3815,106.0835 395.5062,106.9966 Q396.631,107.9097 396.631,109.96 Q396.631,112.0103 395.5062,112.9233 Q394.3815,113.8364 391.8165,113.8364 L390.9035,113.8364 L390.9035,118.4766 L388.4547,118.4766 Z " fill="#000000"/><text fill="#000000" font-family="sans-serif" font-size="14" lengthAdjust="spacing" textLength="158.6279" x="406.11" y="117.2676">POSIX_Zone_Repository</text><line style="stroke:#181818;stroke-width:0.5;" x1="378.11" x2="566.7379" y1="127.9766" y2="127.9766"/><line style="stroke:#181818;stroke-width:0.5;" x1="378.11" x2="566.7379" y1="135.9766" y2="135.9766"/></g><!--class WindowsRepo--><g class="entity" data-entity="WindowsRepo" data-source-line="47" data-uid="ent0014" id="entity_WindowsRepo"><rect fill="#F1F1F1" height="48" rx="2.5" ry="2.5" style="stroke:#181818;stroke-width:0.5;" width="171.1729" x="964.83" y="95.9766"/><ellipse cx="979.83" cy="111.9766" fill="#FFCCCC" rx="11" ry="11" style="stroke:#181818;stroke-width:1;"/><path d="M974.83,106.8335 L976.9716,106.8335 L977.8598,115.9312 L978.9306,110.0459 L980.9643,110.0459 L982.2094,115.9312 L982.9067,106.8335 L985.0649,106.8335 L983.6371,119.2266 L981.3544,119.2266 L979.9433,112.7188 L978.6235,119.2266 L976.3573,119.2266 Z " fill="#000000"/><text fill="#000000" font-family="sans-serif" font-size="14" lengthAdjust="spacing" textLength="139.1729" x="993.83" y="117.2676">Windows_Repository</text><line style="stroke:#181818;stroke-width:0.5;" x1="965.83" x2="1135.0029" y1="127.9766" y2="127.9766"/><line style="stroke:#181818;stroke-width:0.5;" x1="965.83" x2="1135.0029" y1="135.9766" y2="135.9766"/></g><!--class WindowsZoneRepo--><g class="entity" data-entity="WindowsZoneRepo" data-source-line="48" data-uid="ent0015" id="entity_WindowsZoneRepo"><rect fill="#F1F1F1" height="48" rx="2.5" ry="2.5" style="stroke:#181818;stroke-width:0.5;" width="211.7236" x="1170.56" y="95.9766"/><ellipse cx="1185.56" cy="111.9766" fill="#FFCCCC" rx="11" ry="11" style="stroke:#181818;stroke-width:1;"/><path d="M1180.56,106.8335 L1182.7016,106.8335 L1183.5898,115.9312 L1184.6606,110.0459 L1186.6943,110.0459 L1187.9394,115.9312 L1188.6367,106.8335 L1190.7949,106.8335 L1189.3671,119.2266 L1187.0844,119.2266 L1185.6733,112.7188 L1184.3535,119.2266 L1182.0873,119.2266 Z " fill="#000000"/><text fill="#000000" font-family="sans-serif" font-size="14" lengthAdjust="spacing" textLength="179.7236" x="1199.56" y="117.2676">Windows_Zone_Repository</text><line style="stroke:#181818;stroke-width:0.5;" x1="1171.56" x2="1381.2836" y1="127.9766" y2="127.9766"/><line style="stroke:#181818;stroke-width:0.5;" x1="1171.56" x2="1381.2836" y1="135.9766" y2="135.9766"/></g><g class="entity" data-entity="GMN28" data-source-line="67" data-uid="ent0029" id="entity_GMN28"><path d="M6,285.5366 L6,310.8471 A0,0 0 0 0 6,310.8471 L214.8398,310.8471 A0,0 0 0 0 214.8398,310.8471 L214.8398,295.5366 L204.8398,285.5366 L125.16,285.5366 L246.57,144.3766 L117.16,285.5366 L6,285.5366 A0,0 0 0 0 6,285.5366" fill="#FEFFDD" style="stroke:#181818;stroke-width:0.5;"/><path d="M204.8398,285.5366 L204.8398,295.5366 L214.8398,295.5366 L204.8398,285.5366" fill="#FEFFDD" style="stroke:#181818;stroke-width:0.5;"/><text fill="#000000" font-family="sans-serif" font-size="13" lengthAdjust="spacing" textLength="187.8398" x="12" y="303.1049">Excluded on Windows via GPR</text></g><g class="entity" data-entity="GMN31" data-source-line="68" data-uid="ent0032" id="entity_GMN31"><path d="M959.48,285.5366 L959.48,310.8471 A0,0 0 0 0 959.48,310.8471 L1141.3677,310.8471 A0,0 0 0 0 1141.3677,310.8471 L1141.3677,295.5366 L1131.3677,285.5366 L1054.42,285.5366 L1050.42,144.3766 L1046.42,285.5366 L959.48,285.5366 A0,0 0 0 0 959.48,285.5366" fill="#FEFFDD" style="stroke:#181818;stroke-width:0.5;"/><path d="M1131.3677,285.5366 L1131.3677,295.5366 L1141.3677,295.5366 L1131.3677,285.5366" fill="#FEFFDD" style="stroke:#181818;stroke-width:0.5;"/><text fill="#000000" font-family="sans-serif" font-size="13" lengthAdjust="spacing" textLength="160.8877" x="965.48" y="303.1049">Excluded on Unix via GPR</text></g><!--reverse link PlatformOps to POSIXOps--><g class="link" data-entity-1="PlatformOps" data-entity-2="POSIXOps" data-source-line="51" data-uid="lnk16" id="link_PlatformOps_POSIXOps"><path codeLine="51" d="M671.6773,559.9021 C653.2173,590.3021 638.44,614.6466 620.68,643.9066" fill="none" id="PlatformOps-backto-POSIXOps" style="stroke:#181818;stroke-width:1;stroke-dasharray:7,7;"/><polygon fill="none" points="681.02,544.5166,666.5488,556.7879,676.8058,563.0163,681.02,544.5166" style="stroke:#181818;stroke-width:1;"/><text fill="#000000" font-family="sans-serif" font-size="13" lengthAdjust="spacing" textLength="74.0137" x="660.13" y="589.9349">implements</text></g><!--reverse link PlatformOps to WindowsOps--><g class="link" data-entity-1="PlatformOps" data-entity-2="WindowsOps" data-source-line="52" data-uid="lnk17" id="link_PlatformOps_WindowsOps"><path codeLine="52" d="M745.7711,559.8295 C766.4011,593.2195 784.53,622.5466 802.86,652.2066" fill="none" id="PlatformOps-backto-WindowsOps" style="stroke:#181818;stroke-width:1;stroke-dasharray:7,7;"/><polygon fill="none" points="736.31,544.5166,740.6668,562.9832,750.8754,556.6758,736.31,544.5166" style="stroke:#181818;stroke-width:1;"/><text fill="#000000" font-family="sans-serif" font-size="13" lengthAdjust="spacing" textLength="74.0137" x="766.42" y="589.9349">implements</text></g><!--link RepoG to PlatformOps--><g class="link" data-entity-1="RepoG" data-entity-2="PlatformOps" data-source-line="54" data-uid="lnk18" id="link_RepoG_PlatformOps"><path codeLine="54" d="M618.71,352.8266 C637.99,383.8966 658.8257,417.4788 677.1557,447.0088" fill="none" id="RepoG-to-PlatformOps" style="stroke:#181818;stroke-width:1;"/><polygon fill="#181818" points="680.32,452.1066,678.972,442.3504,677.6831,447.8584,672.175,446.5695,680.32,452.1066" style="stroke:#181818;stroke-width:1;"/><text fill="#000000" font-family="sans-serif" font-size="13" lengthAdjust="spacing" textLength="109.9351" x="647.92" y="397.9849">formal parameter</text></g><!--link ZoneRepoG to PlatformOps--><g class="link" data-entity-1="ZoneRepoG" data-entity-2="PlatformOps" data-source-line="55" data-uid="lnk19" id="link_ZoneRepoG_PlatformOps"><path codeLine="55" d="M795.22,352.8266 C776.56,383.8966 756.4285,417.4325 738.6985,446.9625" fill="none" id="ZoneRepoG-to-PlatformOps" style="stroke:#181818;stroke-width:1;"/><polygon fill="#181818" points="735.61,452.1066,743.6721,446.4495,738.1838,447.8199,736.8134,442.3315,735.61,452.1066" style="stroke:#181818;stroke-width:1;"/><text fill="#000000" font-family="sans-serif" font-size="13" lengthAdjust="spacing" textLength="109.9351" x="776.04" y="397.9849">formal parameter</text></g><!--link POSIXRepo to RepoG--><g class="link" data-entity-1="POSIXRepo" data-entity-2="RepoG" data-source-line="57" data-uid="lnk20" id="link_POSIXRepo_RepoG"><path codeLine="57" d="M309.65,144.3766 C355.1,169.5566 423.6617,207.5587 483.4917,240.7087" fill="none" id="POSIXRepo-to-RepoG" style="stroke:#181818;stroke-width:1;stroke-dasharray:7,7;"/><polygon fill="#181818" points="488.74,243.6166,482.8062,235.7559,484.3665,241.1933,478.929,242.7536,488.74,243.6166" style="stroke:#181818;stroke-width:1;"/><text fill="#000000" font-family="sans-serif" font-size="13" lengthAdjust="spacing" textLength="73.0933" x="389.59" y="189.5449">instantiates</text></g><!--link POSIXRepo to POSIXOps--><g class="link" data-entity-1="POSIXRepo" data-entity-2="POSIXOps" data-source-line="58" data-uid="lnk21" id="link_POSIXRepo_POSIXOps"><path codeLine="58" d="M273.37,144.2866 C291.98,213.9966 354.25,424.8866 460.42,568.3666 C481.79,597.2566 506.9641,620.0185 533.3041,640.2785" fill="none" id="POSIXRepo-to-POSIXOps" style="stroke:#181818;stroke-width:1;"/><polygon fill="#181818" points="538.06,643.9366,533.3649,635.2788,534.0968,640.8882,528.4875,641.62,538.06,643.9366" style="stroke:#181818;stroke-width:1;"/><text fill="#000000" font-family="sans-serif" font-size="13" lengthAdjust="spacing" textLength="28.5645" x="365.02" y="397.9849">uses</text></g><!--link POSIXZoneRepo to ZoneRepoG--><g class="link" data-entity-1="POSIXZoneRepo" data-entity-2="ZoneRepoG" data-source-line="59" data-uid="lnk22" id="link_POSIXZoneRepo_ZoneRepoG"><path codeLine="59" d="M522.91,144.3966 C559.3,160.3566 609.98,180.7466 656.42,192.9766 C680.73,199.3766 689.46,190.7366 712.42,200.9766 C735.36,211.2066 752.8371,223.4426 771.3271,239.6426" fill="none" id="POSIXZoneRepo-to-ZoneRepoG" style="stroke:#181818;stroke-width:1;stroke-dasharray:7,7;"/><polygon fill="#181818" points="775.84,243.5966,771.7066,234.657,772.0793,240.3016,766.4347,240.6742,775.84,243.5966" style="stroke:#181818;stroke-width:1;"/><text fill="#000000" font-family="sans-serif" font-size="13" lengthAdjust="spacing" textLength="73.0933" x="657.42" y="189.5449">instantiates</text></g><!--link POSIXZoneRepo to POSIXOps--><g class="link" data-entity-1="POSIXZoneRepo" data-entity-2="POSIXOps" data-source-line="60" data-uid="lnk23" id="link_POSIXZoneRepo_POSIXOps"><path codeLine="60" d="M467.75,144.4666 C459.53,189.7666 444.74,292.1766 460.42,376.4166 C479.43,478.5566 534.6827,582.1299 568.4627,638.9199" fill="none" id="POSIXZoneRepo-to-POSIXOps" style="stroke:#181818;stroke-width:1;"/><polygon fill="#181818" points="571.53,644.0766,570.3668,634.2966,568.9739,639.7793,563.4912,638.3864,571.53,644.0766" style="stroke:#181818;stroke-width:1;"/><text fill="#000000" font-family="sans-serif" font-size="13" lengthAdjust="spacing" textLength="28.5645" x="466.51" y="397.9849">uses</text></g><!--link WindowsRepo to RepoG--><g class="link" data-entity-1="WindowsRepo" data-entity-2="RepoG" data-source-line="62" data-uid="lnk24" id="link_WindowsRepo_RepoG"><path codeLine="62" d="M964.53,139.3666 C872.09,159.4666 735.19,190.2466 712.42,200.9766 C688.9,212.0566 670.2627,224.2885 650.1027,239.9985" fill="none" id="WindowsRepo-to-RepoG" style="stroke:#181818;stroke-width:1;stroke-dasharray:7,7;"/><polygon fill="#181818" points="645.37,243.6866,654.9277,241.3096,649.3139,240.6132,650.0104,234.9994,645.37,243.6866" style="stroke:#181818;stroke-width:1;"/><text fill="#000000" font-family="sans-serif" font-size="13" lengthAdjust="spacing" textLength="73.0933" x="801.82" y="189.5449">instantiates</text></g><!--link WindowsRepo to WindowsOps--><g class="link" data-entity-1="WindowsRepo" data-entity-2="WindowsOps" data-source-line="63" data-uid="lnk25" id="link_WindowsRepo_WindowsOps"><path codeLine="63" d="M1100.22,144.3866 C1122.32,157.6266 1146.09,176.4866 1158.42,200.9766 C1193.5,270.6166 1189.85,305.0566 1158.42,376.4166 C1101.37,505.9366 964.9844,601.5754 884.9944,649.2354" fill="none" id="WindowsRepo-to-WindowsOps" style="stroke:#181818;stroke-width:1;"/><polygon fill="#181818" points="879.84,652.3066,889.6191,651.1361,884.1354,649.7473,885.5242,644.2636,879.84,652.3066" style="stroke:#181818;stroke-width:1;"/><text fill="#000000" font-family="sans-serif" font-size="13" lengthAdjust="spacing" textLength="28.5645" x="1155.53" y="397.9849">uses</text></g><!--link WindowsZoneRepo to ZoneRepoG--><g class="link" data-entity-1="WindowsZoneRepo" data-entity-2="ZoneRepoG" data-source-line="64" data-uid="lnk26" id="link_WindowsZoneRepo_ZoneRepoG"><path codeLine="64" d="M1222.43,144.4166 C1201.24,152.8766 1176.51,161.8366 1153.42,167.9766 C1061.69,192.3866 1028.86,161.7566 942.42,200.9766 C919.66,211.2966 902.3197,223.4704 883.8797,239.5704" fill="none" id="WindowsZoneRepo-to-ZoneRepoG" style="stroke:#181818;stroke-width:1;stroke-dasharray:7,7;"/><polygon fill="#181818" points="879.36,243.5166,888.7703,240.6105,883.1264,240.2281,883.5088,234.5842,879.36,243.5166" style="stroke:#181818;stroke-width:1;"/><text fill="#000000" font-family="sans-serif" font-size="13" lengthAdjust="spacing" textLength="73.0933" x="1114.45" y="189.5449">instantiates</text></g><!--link WindowsZoneRepo to WindowsOps--><g class="link" data-entity-1="WindowsZoneRepo" data-entity-2="WindowsOps" data-source-line="65" data-uid="lnk27" id="link_WindowsZoneRepo_WindowsOps"><path codeLine="65" d="M1274.28,144.3366 C1266.21,218.3866 1230.89,449.9966 1097.42,568.3666 C1048.03,612.1766 985.3376,639.1775 929.1076,657.0675" fill="none" id="WindowsZoneRepo-to-WindowsOps" style="stroke:#181818;stroke-width:1;"/><polygon fill="#181818" points="923.39,658.8866,933.1791,659.9696,928.1547,657.3706,930.7537,652.3462,923.39,658.8866" style="stroke:#181818;stroke-width:1;"/><text fill="#000000" font-family="sans-serif" font-size="13" lengthAdjust="spacing" textLength="28.5645" x="1217.26" y="397.9849">uses</text></g><g class="legend" data-source-line="70"><rect fill="#DDDDDD" height="42.9766" rx="7.5" ry="7.5" style="stroke:#000000;stroke-width:1;" width="397.0781" x="496.6709" y="758.3466"/><text fill="#000000" font-family="sans-serif" font-size="14" lengthAdjust="spacing" textLength="387.0781" x="501.6709" y="776.8817">GPR Excluded_Source_Files selects platform at build time</text><text fill="#000000" font-family="sans-serif" font-size="14" lengthAdjust="spacing" textLength="352.6387" x="501.6709" y="793.37">No runtime overhead - pure compile-time selection</text></g><!--SRC=[hLNVJzim47xFNt625n2qJ4D3ewegbT9KbTYesarC4rBa9aUnSEmeTXXbut_VEJyQfsad7lQM-Bwx- -xkyzbm8n0cA37b8SmnKPeRbQvXnep1LDxBQqnGHYZ3DKpbCwQQAmdFdC4mOfMZzZpzn6N2KXP3A9ZMGsDIlimCJaCb5_mLuOC3ILZun5QuC6jAdc9ec5m9zBpo70vcWfa7bSOmN6gJij1GqWCu75_uvxuFlpq0BedU0miTS72ROCeiLD_BVdzLS1iC3e1fg42tYSxz0KxcoABWXikd8ohsyRW72-8iLy4STIPCWPcW2HPhRJ0Ell4ONvN4O1eT4VXdyLcZtxotNHLCuqHWZD8KpAWAtnzVZQvp5dcl27oxcFxerlGBnlRGqkttuMXsUZWQ-VveT0o3GLb0Ilo5fNyCb0dqEhP_EhUTeGdFX0gPC4IRe5g9pCREYTQPxxYCr2-zdRiyhhBVdHxQt8ti13d_2CFP54vWT7CzXvWb2RMlrOcMk3ZQBem_-v_6bsuNQlMrnsTjapApRIiJFN3cNXJTwHH3yubzSBLs1-NED3T_MU-VOqsfzDtFomB-9xVn2zT6MzELKWAPtAilgmwwaPhkZk6EjlpByKLBMquDjRRiMLjSsvvRBQZTgz9tX729bb9w3zKIkfsjFDxaQgYnxRsBS6bhK6w68ShkYkZ_wNRh6zW3NjrYtOOvbwK1z0fXT3g3nlRfbIA1V1SYhJ6lLj4xm5uzl6vtKDuCIhpfBse7aWUiwyXqPTtqmWQf2UmAj87k2kQvuzbBo0NPA8sUvN6sH_HFMjlWtI4zgGp2KXcZOb0FZkfxC7u9HHPX1FIQLHArhzfaDjzsSxat7RzB_hBnyWJIReXAHz8b7MxGmK9bQOY1pmLgq2ZeqTEGL8y4Cx3Ck8Z0Rcjo_QeWpMI-kXMzkO-qwQ43IPOYX2fEA4WdDnQ1x5gdp4L-xoy0]--></g></svg>